<?xml version="1.0" standalone="no"?>
<!DOCTYPE svg PUBLIC "-//W3C//DTD SVG 20010904//EN"
 "http://www.w3.org/TR/2001/REC-SVG-20010904/DTD/svg10.dtd">
<svg version="1.0" xmlns="http://www.w3.org/2000/svg"
 width="538.000000pt" height="562.000000pt" viewBox="0 0 538.000000 562.000000"
 preserveAspectRatio="xMidYMid meet">

<g transform="translate(0.000000,562.000000) scale(0.100000,-0.100000)"
fill="#000000" stroke="none">
<path d="M2600 4965 c-48 -19 -554 -196 -900 -315 -157 -54 -293 -101 -302
-105 -16 -6 -18 -25 -18 -186 0 -259 -18 -324 -124 -436 -99 -106 -204 -153
-356 -157 -65 -3 -86 -7 -88 -18 -1 -8 26 -163 62 -344 36 -181 88 -448 116
-594 97 -508 112 -576 147 -670 130 -351 426 -646 953 -945 211 -120 511 -255
568 -255 63 0 382 143 617 278 494 282 803 599 917 942 14 41 40 149 57 240
18 91 45 230 61 310 16 80 47 242 70 360 23 118 62 317 87 442 25 125 43 233
40 242 -5 11 -21 13 -84 9 -144 -10 -261 36 -363 143 -112 116 -136 205 -126
471 7 168 7 172 -14 183 -12 6 -272 96 -578 200 -307 104 -577 195 -601 204
-52 19 -94 19 -141 1z m420 -130 c173 -58 443 -150 600 -203 l285 -97 -3 -159
c-5 -260 19 -356 113 -467 71 -84 165 -142 265 -163 55 -12 101 -16 136 -12
29 3 55 3 58 -2 2 -4 -9 -70 -24 -147 -35 -169 -159 -806 -195 -1000 -14 -77
-28 -150 -31 -162 l-4 -23 -1560 0 c-1476 0 -1559 1 -1564 18 -2 9 -16 78 -30
152 -14 74 -69 356 -122 625 -53 270 -99 502 -101 518 l-5 27 75 0 c191 0 372
111 448 275 40 85 49 145 49 330 0 118 3 165 13 172 6 5 147 56 312 113 287
98 474 163 780 271 79 27 151 47 165 44 14 -2 167 -51 340 -110z m-1039 -2623
c61 -39 75 -58 59 -77 -18 -21 -34 -19 -69 11 -76 64 -180 42 -227 -48 -71
-137 114 -272 232 -169 38 34 51 35 68 7 9 -15 4 -23 -27 -51 -156 -136 -402
22 -335 216 42 125 191 179 299 111z m797 16 c8 -8 12 -67 12 -200 l0 -188
-30 0 -30 0 0 194 c0 190 2 201 31 205 3 1 10 -4 17 -11z m729 0 c4 -7 8 -85
8 -173 l0 -160 73 -3 c69 -3 72 -4 72 -27 0 -25 0 -25 -100 -25 l-100 0 -1 93
c-3 157 0 288 6 298 9 13 32 11 42 -3z m-1250 -10 c8 -10 103 -242 148 -360 6
-15 2 -18 -24 -18 -27 0 -33 5 -52 50 l-21 50 -70 0 -69 0 -21 -50 c-18 -44
-24 -50 -49 -50 -16 0 -29 4 -29 8 0 5 31 85 68 178 38 93 71 177 75 187 7 20
30 22 44 5z m373 -3 c43 -22 60 -53 60 -108 0 -81 -59 -137 -144 -137 l-36 0
0 -66 0 -65 -27 3 -28 3 -3 180 c-1 98 0 185 2 192 8 19 139 17 176 -2z m468
-12 c3 -20 -2 -22 -45 -25 l-48 -3 -3 -167 -2 -168 -30 0 -30 0 0 170 0 170
-44 0 c-48 0 -60 8 -50 34 5 14 23 16 128 14 116 -3 121 -4 124 -25z m160 15
c5 -7 40 -87 77 -178 37 -91 71 -173 76 -182 8 -16 5 -18 -24 -18 -31 0 -36 5
-57 50 l-23 50 -67 0 -68 0 -21 -50 c-19 -44 -25 -50 -51 -50 -17 0 -30 2 -30
4 0 3 24 64 54 138 102 253 109 265 134 236z m-548 -461 c13 -7 35 -28 48 -47
31 -45 25 -100 -14 -141 -24 -25 -35 -29 -86 -29 l-58 0 0 115 0 115 43 0 c23
0 53 -6 67 -13z m167 -90 l30 -79 29 83 c16 45 35 85 43 87 11 4 12 -2 7 -24
-13 -51 -71 -188 -81 -191 -9 -3 -65 138 -79 202 -13 55 19 7 51 -78z m-398
-6 c49 -112 52 -140 12 -93 -38 44 -88 45 -119 2 -41 -55 -41 -31 -1 68 38 89
58 127 65 120 1 -2 21 -45 43 -97z"/>
<path d="M2927 4544 c-12 -13 -8 -729 4 -741 9 -9 0 -24 -34 -60 l-46 -48 -45
45 c-60 58 -59 70 5 70 63 0 64 23 1 28 l-42 3 0 170 c0 151 -2 170 -16 167
-14 -3 -16 -24 -15 -170 l2 -168 -43 0 -43 0 94 -94 c57 -58 99 -92 106 -88 7
4 50 47 96 95 l83 89 -34 -4 -35 -3 -5 354 c-5 337 -9 379 -33 355z"/>
<path d="M2531 4204 l2 -266 -36 -36 -36 -35 -39 34 c-68 58 -67 82 3 72 38
-5 45 -3 45 11 0 12 -10 16 -39 16 -22 0 -43 6 -48 13 -4 6 -8 59 -8 117 0 85
-3 105 -14 105 -12 0 -14 -19 -13 -105 2 -58 -2 -111 -7 -119 -5 -8 -19 -12
-35 -9 -14 3 -26 2 -26 -1 0 -4 39 -46 88 -94 l87 -87 100 95 100 94 -39 -6
c-27 -4 -41 -2 -47 8 -5 8 -9 109 -8 224 1 254 2 235 -17 235 -14 0 -15 -30
-13 -266z"/>
<path d="M2730 4450 c0 -13 7 -20 20 -20 13 0 20 7 20 20 0 13 -7 20 -20 20
-13 0 -20 -7 -20 -20z"/>
<path d="M2345 4421 c-8 -15 3 -31 21 -31 9 0 14 7 12 17 -4 20 -24 28 -33 14z"/>
<path d="M2737 4373 c-14 -13 -6 -33 13 -33 13 0 20 7 20 20 0 19 -20 27 -33
13z"/>
<path d="M2344 4314 c3 -9 6 -17 6 -20 0 -2 7 -1 15 2 23 9 18 34 -6 34 -15 0
-19 -4 -15 -16z"/>
<path d="M3262 4183 c3 -115 6 -138 18 -138 13 0 15 18 13 113 -2 87 0 113 10
110 27 -9 161 -189 207 -279 137 -268 140 -582 6 -847 -77 -151 -154 -243
-289 -343 -142 -106 -331 -179 -466 -179 -74 0 -104 -11 -84 -31 20 -20 191 7
312 48 428 146 693 563 651 1024 -20 210 -104 397 -252 555 -68 73 -67 74 63
74 72 0 89 3 89 15 0 13 -22 15 -140 15 l-141 0 3 -137z"/>
<path d="M1962 4208 c-90 -91 -120 -132 -170 -233 -120 -243 -142 -483 -66
-744 32 -112 124 -267 218 -368 32 -35 54 -63 50 -64 -5 0 -53 0 -106 1 -83 1
-98 -1 -98 -14 0 -14 20 -16 140 -16 l140 0 0 135 c0 122 -2 135 -17 135 -16
0 -18 -10 -15 -100 2 -55 1 -108 -2 -116 -8 -21 -174 187 -220 276 -73 139
-109 320 -99 495 5 87 46 252 80 325 44 92 132 218 196 281 41 40 58 62 51 69
-7 7 -33 -13 -82 -62z"/>
<path d="M2730 4265 c0 -8 9 -15 20 -15 11 0 20 7 20 15 0 8 -9 15 -20 15 -11
0 -20 -7 -20 -15z"/>
<path d="M2200 3531 l-35 -29 -3 -266 -3 -267 35 -35 34 -34 475 0 c463 0 475
1 500 20 40 32 47 77 47 310 0 244 -7 282 -53 310 -30 19 -54 20 -497 20
l-466 0 -34 -29z m889 -8 c132 -9 126 4 126 -301 l0 -244 -28 -24 -29 -25
-464 3 c-429 3 -465 4 -481 21 -16 16 -18 41 -18 276 0 274 2 285 48 294 37 7
747 7 846 0z"/>
<path d="M2374 3423 c-13 -46 -32 -68 -62 -77 l-33 -9 3 -111 3 -110 34 -10
c26 -8 37 -18 49 -48 l15 -38 323 0 322 0 7 29 c7 35 23 50 62 60 15 4 28 13
27 19 -1 7 -2 57 -2 112 -2 98 -3 100 -27 106 -30 7 -65 49 -65 75 0 18 -15
19 -325 19 -301 0 -326 -1 -331 -17z m617 -23 c4 0 12 -13 19 -29 6 -16 24
-35 40 -41 34 -14 38 -26 32 -116 -4 -65 -6 -71 -32 -82 -16 -8 -33 -26 -39
-42 l-10 -30 -300 0 c-257 0 -301 2 -301 15 0 8 -18 29 -40 46 l-40 32 0 73 0
72 52 54 52 53 281 -2 c154 -1 283 -3 286 -3z"/>
<path d="M2667 3325 c-42 -53 -35 -85 23 -105 48 -17 60 -43 28 -63 -13 -9
-21 -7 -36 6 -20 18 -42 23 -42 8 0 -5 14 -23 30 -41 l30 -32 35 36 c52 56 46
86 -20 108 -25 8 -41 20 -43 32 -6 28 17 36 54 18 19 -8 37 -12 41 -9 6 7 -54
77 -66 77 -4 0 -19 -16 -34 -35z"/>
<path d="M2231 2610 c-16 -9 -6 -30 15 -30 15 0 20 25 6 34 -4 2 -14 1 -21 -4z"/>
<path d="M2463 2613 c-21 -7 -15 -33 7 -33 11 0 20 6 20 14 0 18 -11 25 -27
19z"/>
<path d="M2564 2609 c-10 -17 13 -36 27 -22 12 12 4 33 -11 33 -5 0 -12 -5
-16 -11z"/>
<path d="M2340 2594 c0 -9 7 -14 17 -12 25 5 28 28 4 28 -12 0 -21 -6 -21 -16z"/>
<path d="M2216 2053 c-9 -26 -16 -48 -16 -50 0 -2 18 -3 39 -3 l40 0 -16 45
c-8 25 -19 47 -23 50 -4 3 -15 -16 -24 -42z"/>
<path d="M2515 2167 c-4 -8 -5 -41 -3 -73 l3 -59 40 2 c98 6 100 121 3 139
-29 5 -39 3 -43 -9z"/>
<path d="M3237 2093 c-4 -7 -14 -30 -22 -52 l-14 -41 40 0 c37 0 40 2 33 23
-17 55 -30 81 -37 70z"/>
<path d="M2622 1653 c3 -84 4 -88 26 -91 34 -5 77 15 92 43 17 32 6 96 -21
118 -12 10 -38 17 -60 17 l-40 0 3 -87z"/>
<path d="M2411 1669 c-15 -44 -15 -46 19 -46 23 0 29 4 25 15 -3 7 -8 25 -11
38 -8 33 -20 30 -33 -7z"/>
</g>
</svg>
